<svg xmlns="http://www.w3.org/2000/svg" width="2890.033" height="1265.101" viewBox="0 0 2890.033 1265.101">
  <g id="login" transform="translate(-142.967 -448.032)">
    <path id="Path_1" data-name="Path 1" d="M325.927,1562.974c.106.086,2046.545-.279,2046.545-.279,67.374-158.849,67.256-236.457,74.925-327.506,42.331-503.251-300.587-580.62-401.046-601.6-307.6-64.255-167.6-382.174-969.158-322.527-73.464,5.467-246.68,49.6-306.375,78.2-41.87,20.039-199.618,109.707-245.9,261.39-14.618,47.874-18.125,101.921-3.387,161.909C573.7,1024.829,437.7,1012.628,338.318,1113.79,205.679,1248.8,219.544,1469.59,325.927,1562.974Z" transform="translate(0 144.388)" fill="#f8b910" opacity="0.06"/>
    <g id="Group_32" data-name="Group 32" transform="translate(0 120)">
      <rect id="Rectangle_29" data-name="Rectangle 29" width="166.78" height="161.803" rx="11.929" transform="translate(1140.308 414.5)" fill="#f8b910"/>
      <rect id="Rectangle_30" data-name="Rectangle 30" width="152.33" height="147.784" rx="10.896" transform="translate(1147.533 421.509)" fill="#f1e2bb"/>
      <g id="Group_28" data-name="Group 28">
        <g id="Group_26" data-name="Group 26">
          <path id="Path_32" data-name="Path 32" d="M1220.243,436.277a3.454,3.454,0,1,1,3.455,3.454A3.455,3.455,0,0,1,1220.243,436.277Z" fill="#f8b910"/>
          <path id="Path_33" data-name="Path 33" d="M1248.12,441.16a3.454,3.454,0,1,1,1.341,4.7A3.455,3.455,0,0,1,1248.12,441.16Z" fill="#f8b910"/>
          <path id="Path_34" data-name="Path 34" d="M1272,460.134a3.455,3.455,0,1,1-1.029,4.776A3.455,3.455,0,0,1,1272,460.134Z" fill="#f8b910"/>
          <path id="Path_35" data-name="Path 35" d="M1283.833,489.5a3.455,3.455,0,1,1-3.455,3.455A3.455,3.455,0,0,1,1283.833,489.5Z" fill="#f8b910"/>
          <path id="Path_36" data-name="Path 36" d="M1277.792,523.584a3.455,3.455,0,1,1-4.886,0A3.454,3.454,0,0,1,1277.792,523.584Z" fill="#f8b910"/>
          <path id="Path_37" data-name="Path 37" d="M1256.1,545.335a3.455,3.455,0,1,1-4.886,0A3.455,3.455,0,0,1,1256.1,545.335Z" fill="#f8b910"/>
          <path id="Path_38" data-name="Path 38" d="M1220.243,556.546A3.454,3.454,0,1,1,1223.7,560,3.454,3.454,0,0,1,1220.243,556.546Z" fill="#f8b910"/>
        </g>
        <g id="Group_27" data-name="Group 27">
          <path id="Path_39" data-name="Path 39" d="M1199.166,441.16a3.455,3.455,0,1,0-1.342,4.7A3.455,3.455,0,0,0,1199.166,441.16Z" fill="#f8b910"/>
          <path id="Path_40" data-name="Path 40" d="M1175.283,460.134a3.455,3.455,0,1,0,1.03,4.776A3.455,3.455,0,0,0,1175.283,460.134Z" fill="#f8b910"/>
          <path id="Path_41" data-name="Path 41" d="M1163.453,489.5a3.455,3.455,0,1,0,3.455,3.455A3.455,3.455,0,0,0,1163.453,489.5Z" fill="#f8b910"/>
          <path id="Path_42" data-name="Path 42" d="M1169.493,523.584a3.455,3.455,0,1,0,4.886,0A3.455,3.455,0,0,0,1169.493,523.584Z" fill="#f8b910"/>
          <path id="Path_43" data-name="Path 43" d="M1191.188,545.335a3.455,3.455,0,1,0,4.885,0A3.454,3.454,0,0,0,1191.188,545.335Z" fill="#f8b910"/>
        </g>
      </g>
      <g id="Group_31" data-name="Group 31">
        <path id="Path_44" data-name="Path 44" d="M1222.766,492.957a3.455,3.455,0,1,1,3.455,3.455A3.455,3.455,0,0,1,1222.766,492.957Z" fill="#f8b910"/>
        <g id="Group_29" data-name="Group 29">
          <rect id="Rectangle_31" data-name="Rectangle 31" width="0.943" height="43.159" transform="translate(1225.749 449.797)" fill="#f8b910"/>
        </g>
        <g id="Group_30" data-name="Group 30">
          <rect id="Rectangle_32" data-name="Rectangle 32" width="29.089" height="2.83" transform="translate(1224.913 491.784) rotate(-38.14)" fill="#f8b910"/>
        </g>
      </g>
    </g>
    <g id="Group_47" data-name="Group 47">
      <g id="Group_42" data-name="Group 42">
        <g id="Group_39" data-name="Group 39">
          <path id="Path_93" data-name="Path 93" d="M1159.266,1707.842h-.346a3.628,3.628,0,0,1-3.627-3.711l5.5-238.406,16.2-1.89-13.817,240.312A3.919,3.919,0,0,1,1159.266,1707.842Z" fill="#3f3d56"/>
        </g>
        <g id="Group_40" data-name="Group 40">
          <path id="Path_94" data-name="Path 94" d="M1064.847,1707.842h-.346a3.628,3.628,0,0,1-3.627-3.711l5.5-238.406,16.2-1.89-13.818,240.312A3.919,3.919,0,0,1,1064.847,1707.842Z" fill="#3f3d56"/>
        </g>
        <g id="Group_41" data-name="Group 41">
          <path id="Path_95" data-name="Path 95" d="M1325.389,1707.842h.346a3.628,3.628,0,0,0,3.627-3.711l-5.5-238.406-16.2-1.89,13.817,240.312A3.918,3.918,0,0,0,1325.389,1707.842Z" fill="#3f3d56"/>
        </g>
        <path id="Path_96" data-name="Path 96" d="M1054.111,1450.94V1287.572a52.05,52.05,0,0,1,52.049-52.049h117.7a52.05,52.05,0,0,1,52.049,52.049v169.61Z" fill="#3f3d56"/>
        <path id="Rectangle_34" data-name="Rectangle 34" d="M0,0H242.888a0,0,0,0,1,0,0V25.791a0,0,0,0,1,0,0H15.628A15.628,15.628,0,0,1,0,10.163V0A0,0,0,0,1,0,0Z" transform="translate(1054.111 1450.939)" fill="#3f3d56"/>
        <rect id="Rectangle_35" data-name="Rectangle 35" width="195.042" height="25.791" rx="11.556" transform="translate(1140.745 1450.939)" fill="#3f3d56"/>
      </g>
      <g id="Group_46" data-name="Group 46">
        <path id="Path_97" data-name="Path 97" d="M1317.557,1410.232c-16.862,29.348-38.07,40.676-38.07,40.676h-88.23S1330.42,1387.845,1317.557,1410.232Z" fill="#233862"/>
        <g id="Group_43" data-name="Group 43">
          <path id="Path_98" data-name="Path 98" d="M1249.793,1637.3a8.157,8.157,0,0,0-1.454,8.724.069.069,0,0,0,.022.044c2.1,5.814,9.057,12.309,17.132,18.793,1.032.833,1.95,1.591,2.75,2.292.21.185.42.369.617.554.163.143.319.292.475.429,7.531,6.942,4.7,8.532,18.226,22.618,15.426,16.051,26.048,16.34,29.069,14.878,2.556-1.246-2.637-9.759-8.392-19.327-.279-.461-.553-.929-.838-1.4-.767-1.271-1.528-2.563-2.289-3.841-6.744-11.516-5.012-16.919-3.413-34.056,1.3-13.927,21.665-77.8,21.665-77.8l-29.563-5.093s-8.9,50.864-18.712,58.7c-5.245,4.175-11.116,4.228-16.157,7.323-.357.215-.706.435-1.049.663A38.766,38.766,0,0,0,1249.793,1637.3Z" fill="#ffb27d"/>
          <path id="Path_99" data-name="Path 99" d="M1249.793,1637.3a8.157,8.157,0,0,0-1.454,8.724.069.069,0,0,0,.022.044c2.577,5.809,9.354,12.27,17.16,18.734,1.02.847,1.92,1.625,2.722,2.351.21.185.42.369.617.554.163.143.319.292.475.429,7.531,6.942,4.7,8.532,18.226,22.618,15.426,16.051,26.048,16.34,29.069,14.878,2.556-1.246-2.637-9.759-8.392-19.327a65.748,65.748,0,0,1-27.5-20.263c-9.288-11.853-15.483-27.083-21.808-35.9-.357.215-.706.435-1.049.663A38.766,38.766,0,0,0,1249.793,1637.3Z" fill="#233862"/>
          <path id="Path_100" data-name="Path 100" d="M1488.17,1618.832c1.826,9.126,14.833,7.6,29.366,4.052s11.078.671,31.761-1.618,26.948-10,27.579-13.077c.565-2.73-9.655-3.692-20.617-4.955-1.378-.154-2.763-.325-4.148-.5-12.376-1.553-21.439-9.539-32.681-16.1-10.648-6.213-26.539-31.525-26.539-31.525l-28.365,2.247s14.885,22.608,20.642,32.437c3.386,5.781,3.206,13.427,2.784,19.33A36.382,36.382,0,0,0,1488.17,1618.832Z" fill="#ffb27d"/>
          <path id="Path_101" data-name="Path 101" d="M1517.536,1622.884c14.532-3.551,11.078.671,31.761-1.618s26.948-10,27.579-13.077c.565-2.73-9.655-3.692-20.617-4.955l-.1.211a58.3,58.3,0,0,1-29.62,9.207c-14.032.341-28.9-3.679-38.585-3.522a36.382,36.382,0,0,0,.218,9.7C1490,1627.958,1503,1626.435,1517.536,1622.884Z" fill="#233862"/>
          <path id="Path_102" data-name="Path 102" d="M1379.47,1437.463l-26.516,71.351-34.618,93.163a56.1,56.1,0,0,1-18.39-1.681c-8.283-2.4-17.787-8.657-17.787-8.657s9.613-100.032,27.544-157.454c4.595-14.739,9.746-26.661,15.429-33.371C1352.93,1367.962,1379.47,1437.463,1379.47,1437.463Z" fill="#233862"/>
          <path id="Path_103" data-name="Path 103" d="M1352.511,1324.148c-17.371-5.6-66.917,1.591-116.688,11.334l-10.42-17.188-107.5-8.4s-35.473,78.668-16.052,128.793c2.854,7.368,8.526,12.093,18.194,12.249,0,0,1.566,0,1.57,0s63.983-.038,84.759-.038c53.462,0,113.145-36.75,120.865-38.294,12.637-2.528,17.693,22.746,30.329,49.285s118.79,117.525,118.79,117.525,16.314.162,23.054-2.365c7.247-2.719,9.9-6.249,9.9-6.249S1391.685,1336.785,1352.511,1324.148Z" fill="#2b478b"/>
          <path id="Path_104" data-name="Path 104" d="M1221.173,1005.268c-13.771-7.232-34.725-8.21-38.129-8.668-40.737-5.474-65.254,53.72-66.7,71.656-2.658,33.06-20.147,38.1-44.764,58.805-49.359,41.515-34.885,89.755-7.9,107.68,16.194,10.755,44.738,0,44.738,0,.4.282,78.063-43.414,116.344-64.492C1282.159,1162.09,1256.266,1023.7,1221.173,1005.268Z" fill="#233862"/>
          <path id="Path_105" data-name="Path 105" d="M1192.685,1152.307c.169.109-18.835,6.6-31.542.969-11.954-5.283-21.01-24.95-20.833-24.961,5.438-.25,11.408-5,16.006-36.2l2.316.831,38.933,14.01s-2.82,12.492-4.645,24.387C1191.384,1141.328,1190.559,1150.9,1192.685,1152.307Z" fill="#ffb27d"/>
          <path id="Path_106" data-name="Path 106" d="M1197.565,1106.955s-2.82,12.492-4.645,24.387c-22.362-4.026-31.139-26.307-34.288-38.4Z" fill="#ed975d"/>
          <path id="Path_107" data-name="Path 107" d="M1203.364,1119.354s-53.269-7.15-48.306-40.254,1.43-56.323,35.651-53.158,38.919,16.786,39.951,28.239S1217.348,1120.361,1203.364,1119.354Z" fill="#ffb27d"/>
          <path id="Path_108" data-name="Path 108" d="M1228.718,1036.035s-34.1,29.386-57.294,31.755-31.976-5.076-31.976-5.076a90.576,90.576,0,0,0,21.9-29.671,16.307,16.307,0,0,1,13.445-9.613C1191.355,1022,1222.751,1021.348,1228.718,1036.035Z" fill="#233862"/>
          <path id="Path_109" data-name="Path 109" d="M1207.4,1033.4s11.408,11.031,15,19.211c3.468,7.9,4.507,26.777,1.746,34.277,0,0,17.774-34.561,7.711-51.352C1221.189,1017.733,1207.4,1033.4,1207.4,1033.4Z" fill="#233862"/>
          <path id="Path_110" data-name="Path 110" d="M1237.54,1230.776c-1.611,107.829-.442,85.3-12.237,95.529-2.842,2.463-10.832,3.931-21.348,4.627-33.064,2.194-91.186-3.253-93.4-9.364-7.626-21.142-2.242-27.711-8.6-60.08-.663-3.442-1.484-7.169-2.448-11.226-5.305-22.233-10.468-29.8,8.353-65.513,17.069-32.353,34.8-58.611,36.4-57.664,45.032,26.732,48.664,4.263,48.664,4.263S1238.33,1178.181,1237.54,1230.776Z" fill="#fff"/>
          <path id="Path_111" data-name="Path 111" d="M1352.954,1508.814l-34.618,93.163a56.1,56.1,0,0,1-18.39-1.681c-8.283-2.4-17.787-8.657-17.787-8.657s9.613-100.032,27.544-157.454Z" fill="#2b478b"/>
          <path id="Path_112" data-name="Path 112" d="M1192.92,1131.342s46.337,7.855,51.778,27.806,37.461,137.236,37.461,137.236-23.556,4.232-34.438-6.65-37.866-100.962-37.866-100.962Z" fill="#fff"/>
          <path id="Path_113" data-name="Path 113" d="M1203.955,1330.932c-33.064,2.194-91.186-3.253-93.4-9.364-7.626-21.142-2.242-27.711-8.6-60.08l15.947-44.906s-2.636,50.006,12.111,63.159,60.381,25.39,67.549,36.379C1201.018,1321.4,1203.292,1326.684,1203.955,1330.932Z" fill="#ebf3ff"/>
          <path id="Path_114" data-name="Path 114" d="M1166.072,1309.9s32.62-7.262,37.883-4.367,18.127,13.437,19.737,17.106-11.717-2.785-16.053-3.947c-2.807-.754-10.2,1.814-13.856,3.034-15.4,5.131-24.829,2.492-24.829,2.492Z" fill="#ffb27d"/>
          <path id="Path_115" data-name="Path 115" d="M1144.227,1127.061s-43.8,2.7-58.962,23.845c-21.344,29.77-63.685,156.638-39.419,173.559,27.327,19.055,124.372,4.984,124.372,4.984s3.23-15.095-1.264-22.4-77.511-19.1-80.881-22.467,42.126-65.717,42.126-75.826S1144.227,1127.061,1144.227,1127.061Z" fill="#fff"/>
          <path id="Path_116" data-name="Path 116" d="M1205.534,1314.61s6.835,8.816,9.075,9.868a6.683,6.683,0,0,0,3.688.79l-4.6-8.29Z" fill="#ffb27d"/>
          <path id="Path_117" data-name="Path 117" d="M1203.955,1305.531l19.872,9.65s-.846,1.383-3.293,1.271-8.618-2.368-8.618-2.368Z" fill="#ffb27d"/>
        </g>
        <g id="Group_45" data-name="Group 45">
          <g id="Group_44" data-name="Group 44">
            <path id="Path_118" data-name="Path 118" d="M1214.609,1337.984H1371.8l47.285-117.586H1262.137Z" fill="#f9a826"/>
            <path id="Path_119" data-name="Path 119" d="M1373.641,1333.4H1166.072v4.582H1371.8Z" fill="#f9a826"/>
          </g>
          <path id="Path_120" data-name="Path 120" d="M1332.119,1279.191c1.185-4.133-1.205-7.484-5.339-7.484a10.727,10.727,0,0,0-9.63,7.484c-1.185,4.133,1.2,7.485,5.338,7.485A10.726,10.726,0,0,0,1332.119,1279.191Z" fill="#fff"/>
        </g>
      </g>
    </g>
    <g id="Group_50" data-name="Group 50">
      <g id="Group_48" data-name="Group 48" transform="translate(1648.188 1370.553)">
        <path id="Path_121" data-name="Path 121" d="M2035.591,1712.195h.458a4.953,4.953,0,0,0,4.8-5.2l-7.275-333.8-21.426-2.645,18.272,336.469A5.321,5.321,0,0,0,2035.591,1712.195Z" transform="translate(-2012.144 -1370.553)" fill="#3f3d56"/>
      </g>
      <g id="Group_49" data-name="Group 49" transform="translate(1161.598 1370.553)">
        <path id="Path_122" data-name="Path 122" d="M1166.853,1712.195h-.458a4.951,4.951,0,0,1-4.8-5.2l7.274-333.8,21.427-2.645-18.273,336.469A5.32,5.32,0,0,1,1166.853,1712.195Z" transform="translate(-1161.598 -1370.553)" fill="#3f3d56"/>
      </g>
      <path id="Rectangle_36" data-name="Rectangle 36" d="M13.6,0H566.389a13.6,13.6,0,0,1,13.6,13.6V26.683a13.6,13.6,0,0,1-13.6,13.6H13.6A13.6,13.6,0,0,1,0,26.682V13.6A13.6,13.6,0,0,1,13.6,0Z" transform="translate(1131.047 1339.06)" fill="#3f3d56"/>
    </g>
    <path id="Path_147" data-name="Path 147" d="M3033,1709.217v1a3.126,3.126,0,0,1-3.275,2.915H146.242a3.127,3.127,0,0,1-3.275-2.915v-1a3.126,3.126,0,0,1,3.275-2.915H3029.725A3.126,3.126,0,0,1,3033,1709.217Z" fill="#2e3552"/>
    <g id="Group_55" data-name="Group 55" transform="translate(123 753)">
      <path id="Path_56" data-name="Path 56" d="M794.778,431.642h-285.2a8.51,8.51,0,0,1-8.5-8.5V270.822a8.51,8.51,0,0,1,8.5-8.5h285.2a8.51,8.51,0,0,1,8.5,8.5v152.32A8.51,8.51,0,0,1,794.778,431.642Z" transform="translate(-150.511 -164.96)" fill="#f9a826"/>
      <circle id="Ellipse_32" data-name="Ellipse 32" cx="31.36" cy="31.36" r="31.36" transform="translate(376.417 141.232)" fill="#fff"/>
      <path id="Path_57" data-name="Path 57" d="M760.222,309.472H632.182a4.795,4.795,0,0,1,0-9.59h128.04a4.795,4.795,0,0,1,0,9.59Z" transform="translate(-150.511 -164.96)" fill="#fff"/>
      <path id="Path_58" data-name="Path 58" d="M693.193,331.392H632.182a4.795,4.795,0,0,1,0-9.59h61.01a4.795,4.795,0,1,1,0,9.59Z" transform="translate(-150.511 -164.96)" fill="#fff"/>
      <path id="Path_59" data-name="Path 59" d="M736.162,353.3H632.182a4.795,4.795,0,0,1,0-9.59h103.98a4.795,4.795,0,0,1,0,9.59Z" transform="translate(-150.511 -164.96)" fill="#fff"/>
      <path id="Path_60" data-name="Path 60" d="M760.222,375.212H632.182a4.795,4.795,0,0,1,0-9.59h128.04a4.795,4.795,0,0,1,0,9.59Z" transform="translate(-150.511 -164.96)" fill="#fff"/>
      <path id="Path_61" data-name="Path 61" d="M756.213,414.852h-21.2a8.8,8.8,0,0,1,0-17.609h21.2a8.8,8.8,0,0,1,0,17.609Z" transform="translate(-150.511 -164.96)" fill="#fff"/>
    </g>
    <path id="Path_148" data-name="Path 148" d="M942.664,584.76l-.614,5.163-9.972,83.428c-26,17.783-46.215.692-46.391,0l-12.564-83.819-.713-4.771Z" transform="translate(638.59 672.24)" fill="#3f3d56"/>
    <path id="Path_149" data-name="Path 149" d="M949.841,584.76l-.676,6.86c-32.278,22.2-66.712,4.92-75.969-.52l-.786-6.34Z" transform="translate(635.379 660.5)" opacity="0.1"/>
    <path id="Path_150" data-name="Path 150" d="M870.5,578.74v10s40.732,29.36,77.432,0v-10Z" transform="translate(637.289 670.5)" fill="#f9a826"/>
    <path id="Path_151" data-name="Path 151" d="M875.235,565.53s-1.186,6.75-4.735,7.34v8.51h77.432v-7.63s-4.735-1.47-4.033-8.22Z" transform="translate(637.289 670.5)" fill="#f9a826"/>
    <ellipse id="Ellipse_33" data-name="Ellipse 33" cx="35.3" cy="12.48" rx="35.3" ry="12.48" transform="translate(1510.91 1220.28)" fill="#f9a826"/>
    <ellipse id="Ellipse_34" data-name="Ellipse 34" cx="35.3" cy="12.48" rx="35.3" ry="12.48" transform="translate(1510.91 1221.28)" opacity="0.1"/>
    <path id="Path_152" data-name="Path 152" d="M944.8,565.53c0,5-13.865,9.1-30.98,9.1h-.912c-11.492-.1-21.422-2-26.488-4.84-2.288-1.28-3.589-2.73-3.589-4.26,0-2.54,3.546-4.84,9.288-6.49a81.516,81.516,0,0,1,21.726-2.61C930.935,556.43,944.8,560.5,944.8,565.53Z" transform="translate(633.099 668.5)" opacity="0.1"/>
    <path id="Path_153" data-name="Path 153" d="M914,569.017c-11.679-.064-21.771-1.282-26.92-3.1h0L892.847,559Z" transform="translate(632 671.5)" opacity="0.1"/>
    <path id="Path_154" data-name="Path 154" d="M880.1,566.23c-.52-.11-1.21.07-1.31.59a1.27,1.27,0,0,0,.2.75,10.671,10.671,0,0,0,4.78,4.09,2.849,2.849,0,0,0,1.09.35,1,1,0,0,0,1-.52,1.13,1.13,0,0,0-.07-.93,4.13,4.13,0,0,0-1.24-1.36C883.21,568.15,881.84,566.52,880.1,566.23Z" transform="translate(633 666.5)" opacity="0.1"/>
    <circle id="Ellipse_35" data-name="Ellipse 35" cx="20" cy="20" r="20" transform="translate(1526 1285)" fill="#f9a826"/>
    <g id="Group_7" data-name="Group 7" transform="translate(1363 905)">
      <path id="Path_50" data-name="Path 50" d="M533.883,305.507H381.367a4.551,4.551,0,0,1-4.546-4.546V219.506a4.551,4.551,0,0,1,4.546-4.546H533.883a4.551,4.551,0,0,1,4.546,4.546v81.455A4.551,4.551,0,0,1,533.883,305.507Z" transform="translate(-150.511 -164.96)" fill="#d8d8d8"/>
      <circle id="Ellipse_31" data-name="Ellipse 31" cx="16.77" cy="16.77" r="16.77" transform="translate(240.135 73.46)" fill="#fff"/>
      <path id="Path_51" data-name="Path 51" d="M515.4,240.174H446.932a2.564,2.564,0,0,1,0-5.128H515.4a2.564,2.564,0,1,1,0,5.128Z" transform="translate(-150.511 -164.96)" fill="#fff"/>
      <path id="Path_52" data-name="Path 52" d="M479.559,251.9H446.932a2.564,2.564,0,0,1,0-5.128h32.626a2.564,2.564,0,0,1,0,5.128Z" transform="translate(-150.511 -164.96)" fill="#fff"/>
      <path id="Path_53" data-name="Path 53" d="M502.538,263.613H446.933a2.564,2.564,0,0,1,0-5.128h55.605a2.564,2.564,0,0,1,0,5.128Z" transform="translate(-150.511 -164.96)" fill="#fff"/>
      <path id="Path_54" data-name="Path 54" d="M515.4,275.33H446.932a2.564,2.564,0,0,1,0-5.128H515.4a2.564,2.564,0,1,1,0,5.128Z" transform="translate(-150.511 -164.96)" fill="#fff"/>
      <path id="Path_55" data-name="Path 55" d="M513.26,296.528H501.923a4.708,4.708,0,1,1,0-9.417H513.26a4.708,4.708,0,0,1,0,9.417Z" transform="translate(-150.511 -164.96)" fill="#fff"/>
    </g>
    <g id="Rectangle_37" data-name="Rectangle 37" transform="translate(833 935)" fill="#707070" stroke="#707070" stroke-width="1">
      <rect width="134" height="1" stroke="none"/>
      <rect x="0.5" y="0.5" width="133" fill="none"/>
    </g>
    <g id="Rectangle_38" data-name="Rectangle 38" transform="matrix(0.602, -0.799, 0.799, 0.602, 965.9, 935.799)" fill="#707070" stroke="#707070" stroke-width="1">
      <rect width="1" height="111" stroke="none"/>
      <rect x="0.5" y="0.5" height="110" fill="none"/>
    </g>
    <g id="Rectangle_39" data-name="Rectangle 39" transform="translate(1362 995)" fill="#707070" stroke="#707070" stroke-width="1">
      <rect width="134" height="1" stroke="none"/>
      <rect x="0.5" y="0.5" width="133" fill="none"/>
    </g>
    <g id="Rectangle_40" data-name="Rectangle 40" transform="matrix(0.643, 0.766, -0.766, 0.643, 1362.719, 994.742)" fill="#707070" stroke="#707070" stroke-width="1">
      <rect width="1" height="111" stroke="none"/>
      <rect x="0.5" y="0.5" height="110" fill="none"/>
    </g>
    <circle id="Ellipse_36" data-name="Ellipse 36" cx="36.25" cy="36.25" r="36.25" transform="translate(670.59 1329.51)" fill="#f9a826" opacity="0.1"/>
    <circle id="Ellipse_37" data-name="Ellipse 37" cx="36.25" cy="36.25" r="36.25" transform="translate(700.59 539.51)" fill="#f9a826" opacity="0.1"/>
    <circle id="Ellipse_38" data-name="Ellipse 38" cx="36.25" cy="36.25" r="36.25" transform="translate(2010.59 1559.51)" fill="#f9a826" opacity="0.1"/>
  </g>
</svg>
