<svg width="671" height="500" viewBox="0 0 671 500" fill="none" xmlns="http://www.w3.org/2000/svg">
<g clip-path="url(#clip0_2_313)">
<path d="M432.871 136.688C389.672 96.194 339.065 85.7483 325.685 83.6137C334.693 59.311 348.618 23.1755 352.085 17.8232C353.201 17.6724 355.48 17.4381 358.846 17.4381C368.676 17.4381 389.706 19.4821 420.134 33.1753C464.072 52.9472 475.836 75.1926 478.146 80.6326L432.871 136.688H432.871Z" fill="white"/>
<path d="M358.847 14.771C353.5 14.771 350.754 15.3352 350.754 15.3352C347.63 16.3766 322.038 85.7921 322.038 85.7921C322.038 85.7921 382.789 91.9894 433.128 140.614L481.18 81.1204C481.18 81.1204 473.161 54.1122 421.229 30.7433C390.797 17.0485 369.584 14.771 358.847 14.771H358.847ZM358.847 20.1044C368.462 20.1044 389.067 22.1193 419.041 35.6058C458.793 53.4955 471.638 73.4925 475.022 80.2577L432.588 132.796C407.049 109.545 379.526 96.703 360.488 89.9428C346.988 85.1482 335.936 82.692 329.314 81.5017C339.268 54.747 350.102 27.2056 353.739 20.3202C354.92 20.2095 356.63 20.1041 358.847 20.1041V20.1044Z" fill="#A0C6F4"/>
<path d="M330.955 91.1837C330.955 91.1837 390.692 97.2173 427.498 131.008" stroke="#2A1E17" stroke-width="1.33354" stroke-miterlimit="10" stroke-linecap="round" stroke-linejoin="round"/>
<path d="M382.538 88.2703L404.824 44.9387L427.729 90.1275L382.538 88.2703Z" fill="#A0C6F4"/>
<path d="M386.872 87.6513L409.157 44.3194L432.062 89.5086L386.872 87.6513Z" stroke="#2A1E17" stroke-width="1.33354" stroke-miterlimit="10" stroke-linecap="round" stroke-linejoin="round"/>
<path d="M365.953 12.1383C365.953 12.1383 432.93 18.1731 474.564 67.6516" stroke="#2A1E17" stroke-width="1.33354" stroke-miterlimit="10" stroke-linecap="round" stroke-linejoin="round"/>
<path d="M400.174 204.163C396.496 201.459 394.083 199.645 394.083 199.645C395.102 198.286 411.221 181.114 420.551 167.277C420.551 167.277 401.679 205.269 400.174 204.164V204.163Z" fill="#2A1E17"/>
<path d="M171.793 79.0024C173.589 81.9944 174.386 80.7969 179.571 80.3987C184.758 80 192.137 83.7894 194.729 90.1718C197.321 96.5545 196.525 97.5518 195.129 98.3491C193.731 99.1464 183.761 100.342 183.361 102.337" stroke="#2A1E17" stroke-width="1.33354" stroke-miterlimit="10" stroke-linecap="round" stroke-linejoin="round"/>
<path d="M306.155 403.617L301.509 395.763L285.024 423.239L289.351 426.567L306.155 403.617Z" fill="#F9865F"/>
<path d="M196.697 335.483C196.697 335.483 188.155 321.595 191.819 314.79L219.069 317.706L196.697 335.483H196.697Z" fill="#F9865F"/>
<path d="M196.697 335.483L198.33 339.234L193.295 358.866C192.662 361.339 193.482 363.956 195.414 365.623L220.335 328.783C222.703 325.284 222.166 320.581 219.069 317.706L213.502 312.532L196.697 335.483V335.483Z" fill="black"/>
<path d="M183.36 102.337C191.166 102.152 201.055 101.657 199.076 95.7243C197.099 89.7909 189.682 74.9564 172.87 79.4071C172.87 79.4071 166.937 84.3509 174.353 93.2522C181.771 102.152 183.361 102.338 183.361 102.338L183.36 102.337Z" fill="#2A1E33"/>
<path d="M222.861 318.034C222.861 318.034 209.539 278.703 220.811 261.434C230.114 247.181 260.508 270.364 264.672 273.488L286.421 234.211C286.421 234.211 281.4 227.173 269.074 220.282C256.749 213.391 205.831 192.752 181.9 230.506C173.056 244.458 172.922 304.335 189.883 327.283L222.861 318.034Z" fill="#7595EC"/>
<path d="M222.861 318.034C222.861 318.034 209.539 278.703 220.811 261.434C230.114 247.181 260.508 270.364 264.672 273.488" stroke="#2A1E17" stroke-width="1.33354" stroke-miterlimit="10" stroke-linecap="round" stroke-linejoin="round"/>
<path d="M286.42 234.211C276.529 244.623 247.206 295.343 240.612 319.583C231.791 352.008 235.108 378.902 283.587 431.558L307.02 397.426C307.02 397.426 290.545 372.406 293.62 348.822C298.07 314.702 322.351 281.621 334.637 260.637L286.421 234.212L286.42 234.211Z" fill="#7595EC"/>
<path d="M290.143 238.619L329.124 269.212L340.773 251.501L290.143 238.619Z" fill="#2A1E17"/>
<path d="M514.034 206.452C520.114 207.756 524.744 210.071 527.929 213.4C531.113 216.728 529.666 218.466 528.507 219.479C527.348 220.491 522.863 219.334 518.955 215.86C515.047 212.387 514.034 206.452 514.034 206.452V206.452Z" fill="#FF8A66"/>
<path d="M394.083 199.645C395.103 198.284 411.222 181.114 420.552 167.277C420.552 167.277 448.757 198.881 451.816 199.9C452.953 200.279 459.868 200.189 468.454 200.101C482.967 199.95 502.258 199.805 506.527 201.939C513.324 205.338 517.402 207.037 519.102 211.794C520.801 216.553 521.47 219.659 517.402 219.95C512.645 220.29 509.586 214.172 509.586 214.172C509.586 214.172 505.699 216.521 495.654 220.29C495.654 220.29 459.509 234.322 435.35 227.535C428.753 225.682 394.082 199.645 394.082 199.645H394.083Z" fill="#F9865F"/>
<path d="M174.984 73.4184C171.883 74.5997 169.999 76.0103 171.792 79.0024C173.588 81.9944 174.387 80.7969 179.571 80.3986C184.757 80 192.136 83.7894 194.73 90.1718C197.322 96.5545 196.524 97.5518 195.128 98.3491C193.732 99.1464 183.76 100.342 183.36 102.337C182.962 104.332 187.402 110.22 196.576 109.82L198.771 109.421C198.771 109.421 218.064 128.265 220.856 131.057C223.648 133.851 244.17 147.752 255.472 150.579C264.065 152.725 281.471 149.956 291.932 147.915C297.012 146.924 300.453 146.105 300.453 146.105C300.453 146.105 292.604 131.965 291.008 110.225C291.008 110.225 272.229 113.243 259.749 115.98C259.749 115.98 230.628 99.7457 216.468 92.5656C216.468 92.5656 204.102 77.4081 198.318 75.4133C192.534 73.4188 179.173 71.8227 174.984 73.4188L174.984 73.4184Z" fill="#F9865F"/>
<path d="M291.932 147.914C297.012 146.924 300.453 146.105 300.453 146.105C300.453 146.105 290.958 134.135 289.362 112.396C289.362 112.396 285.071 117.022 286.404 129.334C288.083 144.809 291.932 147.914 291.932 147.914Z" fill="#2A1E17"/>
<path d="M288.903 109.962C288.903 109.962 289.166 136.528 296.283 147.61L298.835 146.588C298.835 146.588 265.295 185.827 254.447 211.465C252.673 215.66 324.086 261.276 334.637 260.637C334.637 260.637 369.43 207.533 381.33 191.791L394.119 201.702C394.119 201.702 419.204 176.298 420.551 167.278C420.551 167.278 396.321 137.794 376.499 129.162C356.678 120.53 338.964 105.74 317.67 106.142C299.239 106.49 288.903 109.962 288.903 109.962H288.903Z" fill="#FFF7C9"/>
<path d="M394.119 201.702L381.33 191.79L383.369 186.24L394.119 201.702Z" fill="#2A1E17"/>
<path d="M413.574 96.6566C411.334 103.621 404.869 123.769 397.655 126.257C390.44 128.743 382.931 125.621 382.931 125.621L375.247 129.553C374.39 132.125 368.325 134.339 360.494 134.641C354.697 134.864 351.166 127.418 352.882 122.028C353.67 119.553 356.613 107.352 356.613 107.352C356.613 107.352 362.831 84.4696 368.553 79.7427C374.273 75.0173 379.65 70.3372 394.919 76.5091C418.299 85.9626 413.574 96.657 413.574 96.657V96.6566Z" fill="#F9865F"/>
<path d="M367.221 97.6481C366.194 101.925 361.747 110.479 358.839 108.939C355.93 107.399 354.905 103.464 356.957 95.9375C359.01 88.4105 360.721 71.3042 366.537 68.2241C372.354 65.1451 374.918 68.7373 374.918 68.7373C374.918 68.7373 372.354 56.2494 379.879 54.5388C379.879 54.5388 382.446 53.3413 381.419 61.895C381.419 61.895 384.327 54.0256 393.737 55.0523C403.145 56.079 406.395 69.2508 406.395 69.2508C406.395 69.2508 407.08 65.6587 411.356 65.6587C415.633 65.6587 422.133 71.9882 420.594 79.0016C420.594 79.0016 431.537 75.5761 437.358 84.3055C443.174 93.0297 442.489 102.61 428.463 106.372C413.796 110.308 413.922 93.2001 411.698 90.9763C409.474 88.7536 407.081 86.187 398.867 89.2656C390.657 92.3442 382.104 83.2788 382.104 83.2788C382.104 83.2788 380.735 94.2268 379.366 95.2535C377.998 96.2802 375.261 97.6481 375.945 92.5161C376.63 87.3841 377.485 87.8977 376.972 86.5298C376.46 85.1603 374.144 80.843 369.275 84.6472C363.801 88.9244 367.221 97.6485 367.221 97.6485L367.221 97.6481Z" fill="#2A1E33"/>
<path d="M369.55 99.564C366.288 96.8228 364.024 91.9935 366.896 87.1642C369.768 82.3349 374.467 81.6815 375.903 83.5094C377.339 85.336 377.893 88.4173 376.544 92.0706" stroke="#2A1E33" stroke-width="1.33354" stroke-miterlimit="10" stroke-linecap="round" stroke-linejoin="round"/>
<path d="M289.351 426.566L290.985 430.317L285.95 449.95C285.316 452.422 286.136 455.038 288.067 456.706L312.99 419.867C315.356 416.367 314.82 411.663 311.723 408.788L306.155 403.616L289.351 426.566V426.566Z" fill="black"/>
<path d="M374.919 68.738C374.919 68.738 373.011 62.5302 367.291 60.897" stroke="#2A1E33" stroke-width="1.33354" stroke-miterlimit="10" stroke-linecap="round" stroke-linejoin="round"/>
<path d="M253.666 209.591L322.708 113.148" stroke="#2A1E17" stroke-width="1.33354" stroke-miterlimit="10" stroke-linecap="round" stroke-linejoin="round"/>
<path d="M351.166 119.895C348.679 123.129 347.545 137.047 358.99 137.951C370.434 138.853 377.75 133.827 377.75 133.827" stroke="#2A1E17" stroke-width="1.33354" stroke-miterlimit="10" stroke-linecap="round" stroke-linejoin="round"/>
<path d="M198.319 75.4125C198.319 75.4125 206.211 85.8575 207.452 89.5789" stroke="#2A1E17" stroke-width="1.33354" stroke-miterlimit="10" stroke-linecap="round" stroke-linejoin="round"/>
<path d="M493.813 215.449C493.813 215.449 499.086 219.791 509.586 214.173C513.395 212.136 510.682 207.316 505.863 208.521C501.043 209.726 495.32 207.919 495.32 207.919" stroke="#2A1E17" stroke-width="1.33354" stroke-miterlimit="10" stroke-linecap="round" stroke-linejoin="round"/>
<path d="M515.843 207.055C515.843 207.055 520.901 212.956 520.762 216.463" stroke="#2A1E17" stroke-width="1.33354" stroke-miterlimit="10" stroke-linecap="round" stroke-linejoin="round"/>
<path d="M441.395 206.412C441.395 206.412 445.969 200.319 451.815 199.9" stroke="#2A1E17" stroke-width="1.33354" stroke-miterlimit="10" stroke-linecap="round" stroke-linejoin="round"/>
<path d="M248.523 125.826C248.523 125.826 251.194 117.509 259.75 115.98" stroke="#2A1E17" stroke-width="1.33354" stroke-miterlimit="10" stroke-linecap="round" stroke-linejoin="round"/>
<path d="M271.708 252.059L261.501 271.586C261.501 271.586 227.846 328.538 239.267 365.332" stroke="#2A1E17" stroke-width="1.33354" stroke-miterlimit="10" stroke-linecap="round" stroke-linejoin="round"/>
<path d="M301.523 317.4L334.636 260.637C334.636 260.637 378.036 197.69 382.478 188.809L397.792 160.475" stroke="#2A1E17" stroke-width="1.33354" stroke-miterlimit="10" stroke-linecap="round" stroke-linejoin="round"/>
<path d="M258.289 215.637C258.289 215.637 317.174 258.569 334.637 260.637" stroke="#2A1E17" stroke-width="1.33354" stroke-miterlimit="10" stroke-linecap="round" stroke-linejoin="round"/>
<path d="M288.903 109.962C288.903 109.962 288.85 136.905 296.113 147.951" stroke="#2A1E17" stroke-width="1.33354" stroke-miterlimit="10" stroke-linecap="round" stroke-linejoin="round"/>
<path d="M418.661 163.007C416.812 174.113 392.228 197.432 392.228 197.432" stroke="#2A1E17" stroke-width="1.33354" stroke-miterlimit="10" stroke-linecap="round" stroke-linejoin="round"/>
<path d="M238.744 297.813C238.744 299.743 237.179 301.309 235.248 301.309C233.317 301.309 231.751 299.743 231.751 297.813C231.751 295.882 233.317 294.316 235.248 294.316C237.179 294.316 238.744 295.882 238.744 297.813Z" fill="#2A1E17"/>
<path d="M563.302 372.948L561.37 359.574L572.777 367.157L566.808 368.46L563.302 372.948Z" stroke="#2A1E17" stroke-width="1.33354" stroke-miterlimit="10" stroke-linecap="round" stroke-linejoin="round"/>
<path d="M184.982 144.636C163.366 125.562 127.644 173.123 258.355 324.507C333.756 411.835 393 419.666 401.026 389.284C415.423 334.778 363.425 320.999 382.774 342.348C410.905 373.392 490.93 379.95 550.562 350.98C609.401 322.396 573.232 278.007 569.581 275.416" stroke="#2A1E17" stroke-width="1.33354" stroke-miterlimit="10" stroke-linecap="round" stroke-linejoin="round"/>
<path d="M555 350.709C555 352.639 553.435 354.206 551.504 354.206C549.572 354.206 548.007 352.639 548.007 350.709C548.007 348.778 549.572 347.212 551.504 347.212C553.435 347.212 555 348.778 555 350.709Z" fill="#2A1E17"/>
<path d="M500.623 379.248L604.267 320.83" stroke="#2A1E17" stroke-width="1.33354" stroke-miterlimit="10" stroke-linecap="round" stroke-linejoin="round"/>
<path d="M190.635 147.462C190.635 149.393 189.069 150.96 187.138 150.96C185.207 150.96 183.642 149.393 183.642 147.462C183.642 145.532 185.207 143.965 187.138 143.965C189.069 143.965 190.635 145.532 190.635 147.462Z" fill="#2A1E17"/>
<path d="M283.795 75.2738C283.795 79.4165 280.437 82.7751 276.294 82.7751C272.151 82.7751 268.793 79.4165 268.793 75.2738C268.793 71.1311 272.151 67.7725 276.294 67.7725C280.437 67.7725 283.795 71.1311 283.795 75.2738Z" fill="#FF6D66"/>
<path d="M140.173 18.0582C138.351 18.0582 136.874 19.5346 136.874 21.356C136.874 23.177 138.351 24.6534 140.173 24.6534C141.994 24.6534 143.472 23.177 143.472 21.356C143.472 19.5346 141.994 18.0582 140.173 18.0582Z" fill="#A0C6F4"/>
<path d="M585.333 424.332C585.333 426.153 583.857 427.631 582.035 427.631C580.215 427.631 578.739 426.153 578.739 424.332C578.739 422.51 580.215 421.033 582.035 421.033C583.857 421.033 585.333 422.51 585.333 424.332Z" fill="#FAD8B0"/>
<path d="M523.115 275.403L487.666 258.765C484.806 257.424 484.855 253.339 487.747 252.066L553.699 223.045C554.633 222.636 555.696 222.631 556.633 223.033L601.933 242.479L523.115 275.403L523.115 275.403Z" fill="#2A1E33"/>
<path d="M520.919 220.727C521.009 235.396 523.114 275.403 523.114 275.403L601.934 242.477L600.167 186.808C600.058 183.39 596.506 181.185 593.397 182.603L525.533 213.529C522.712 214.814 520.9 217.627 520.92 220.727H520.919Z" fill="#C6CBCB"/>
<path d="M523.115 275.403L601.934 242.478L600.167 186.808C600.167 186.808 599.643 180.729 593.398 182.602" stroke="#2A1E17" stroke-width="1.33354" stroke-miterlimit="10" stroke-linecap="round" stroke-linejoin="round"/>
<path d="M561.265 235.39L566.586 222.811" stroke="#2A1E17" stroke-width="1.33354" stroke-miterlimit="10" stroke-linecap="round" stroke-linejoin="round"/>
<path d="M566.586 235.39L571.907 222.811" stroke="#2A1E17" stroke-width="1.33354" stroke-miterlimit="10" stroke-linecap="round" stroke-linejoin="round"/>
<path d="M157.687 369.297C157.687 371.119 156.211 372.596 154.388 372.596C152.567 372.596 151.092 371.119 151.092 369.297C151.092 367.477 152.567 366 154.388 366C156.211 366 157.687 367.477 157.687 369.297Z" fill="#FF6D66"/>
<path d="M437.012 385.636C437.012 388.165 434.96 390.217 432.43 390.217C429.899 390.217 427.849 388.165 427.849 385.636C427.849 383.105 429.899 381.053 432.43 381.053C434.96 381.053 437.012 383.105 437.012 385.636Z" fill="#FF6D66"/>
<path d="M188.565 418.192C193.93 420.765 209.541 427.257 230.204 427.119C231.335 427.111 232.209 428.112 232.068 429.234L229.191 452.068C229.089 452.883 228.476 453.532 227.669 453.683C221.833 454.778 198.309 458.007 180.711 443.084C180.162 442.619 179.941 441.87 180.128 441.174L185.942 419.405C186.246 418.268 187.504 417.683 188.565 418.191V418.192Z" fill="#FFF7DC"/>
<path d="M190.633 424.904C190.633 424.904 200.798 439.186 204.424 441.231C208.047 443.278 227.617 431.613 227.617 431.613" stroke="#2A1E17" stroke-width="1.33354" stroke-miterlimit="10" stroke-linecap="round" stroke-linejoin="round"/>
<path d="M214.007 439.241L224.686 450.218" stroke="#2A1E17" stroke-width="1.33354" stroke-miterlimit="10" stroke-linecap="round" stroke-linejoin="round"/>
<path d="M199.17 437.125L186.68 440.521" stroke="#2A1E17" stroke-width="1.33354" stroke-miterlimit="10" stroke-linecap="round" stroke-linejoin="round"/>
<path d="M515.557 159.993H503.626V148.062H515.557V159.993Z" fill="#FFE1C0"/>
<path d="M505.244 308.994L508.789 315.135L512.335 321.277H505.244H498.152L501.699 315.135L505.244 308.994Z" fill="#A0C6F4"/>
<path d="M218.503 36.8906L219.426 9.00646C219.329 6.40399 220.389 5.57455 221.993 5.21972C229.569 3.54382 252.593 -1.58931 277.638 5.81299C280.873 6.77016 280.77 8.48347 280.718 10.0248L279.822 36.6087C279.757 38.5609 277.718 39.9741 275.441 39.6408C268.13 38.5703 258.185 38.2397 248.085 38.3251C237.65 38.4127 228.353 39.1889 221.845 40.4423C219.363 40.9196 218.43 39.0687 218.503 36.8903V36.8906Z" stroke="#2A1E17" stroke-width="1.33354" stroke-miterlimit="10" stroke-linecap="round" stroke-linejoin="round"/>
<path d="M226.931 32.8133L241.506 15.7505L257.641 31.6744C252.078 29.8624 226.931 32.8133 226.931 32.8133Z" stroke="#2A1E17" stroke-width="1.33354" stroke-miterlimit="10" stroke-linecap="round" stroke-linejoin="round"/>
<path d="M250.441 23.6493L262.225 14.2186L272.154 21.3057L272.528 32.3867L257.641 31.6748" stroke="#2A1E17" stroke-width="1.33354" stroke-miterlimit="10" stroke-linecap="round" stroke-linejoin="round"/>
<path d="M233.274 14.0485C233.428 15.3926 232.277 16.5524 230.701 16.6393C229.126 16.7258 227.724 15.7059 227.57 14.3618C227.416 13.0177 228.569 11.858 230.142 11.7714C231.718 11.6849 233.121 12.7044 233.274 14.0485V14.0485Z" stroke="#2A1E17" stroke-width="1.33354" stroke-miterlimit="10" stroke-linecap="round" stroke-linejoin="round"/>
<path d="M500.362 399.157L510.14 417.212C511.169 418.83 510.805 419.75 509.918 420.573C505.727 424.453 493.01 436.272 474.35 440.879C471.941 441.474 471.369 440.349 470.829 439.349L461.514 422.129C460.832 420.865 461.601 419.21 463.17 418.575C468.213 416.536 474.653 413.051 481.037 409.241C487.631 405.307 493.25 401.356 496.918 398.143C498.318 396.914 499.598 397.744 500.362 399.156V399.157Z" stroke="#2A1E17" stroke-width="1.33354" stroke-miterlimit="10" stroke-linecap="round" stroke-linejoin="round"/>
<path d="M496.523 404.877L493.608 421.135L477.44 417.017C481.646 416.102 496.524 404.877 496.524 404.877H496.523Z" stroke="#2A1E17" stroke-width="1.33354" stroke-miterlimit="10" stroke-linecap="round" stroke-linejoin="round"/>
<path d="M484.996 419.44L481.016 429.811L472.075 429L467.718 422.1L477.439 417.019" stroke="#2A1E17" stroke-width="1.33354" stroke-miterlimit="10" stroke-linecap="round" stroke-linejoin="round"/>
<path d="M499.469 419.156C498.873 418.36 499.172 417.195 500.141 416.555C501.109 415.914 502.379 416.041 502.977 416.838C503.574 417.632 503.274 418.798 502.305 419.439C501.336 420.079 500.066 419.954 499.469 419.156Z" stroke="#2A1E17" stroke-width="1.33354" stroke-miterlimit="10" stroke-linecap="round" stroke-linejoin="round"/>
<path d="M452.762 90.9177L492.488 121.324C493.359 121.991 494.608 121.814 495.26 120.931L501.258 112.802C501.883 111.952 501.728 110.762 500.904 110.105L461.738 78.7658C460.863 78.0645 459.58 78.239 458.923 79.1471L452.365 88.2098C451.741 89.071 451.917 90.2726 452.762 90.9177Z" fill="white"/>
<path d="M452.762 90.9177L492.488 121.324C493.359 121.991 494.608 121.814 495.26 120.931L501.258 112.802C501.883 111.952 501.728 110.762 500.904 110.105L461.738 78.7658C460.863 78.0645 459.58 78.239 458.923 79.1471L452.365 88.2098C451.741 89.071 451.917 90.2726 452.762 90.9177Z" stroke="#2A1E17" stroke-width="1.33354" stroke-miterlimit="10" stroke-linecap="round" stroke-linejoin="round"/>
<path d="M455.702 89.5607L465.337 96.3206L471.021 89.5354L461.385 81.4994L455.702 89.5607Z" fill="#FF6D66"/>
<path d="M468.964 98.9575L478.609 106.611L483.78 100.249L474.07 92.3691L468.964 98.9575Z" fill="#FAD8B0"/>
<path d="M481.856 109.551L491.49 116.311L496.078 110.415L486.952 102.778L481.856 109.551Z" fill="#A0C6F4"/>
<path d="M532.029 48.4077L541.081 124.482C541.278 126.152 542.808 127.333 544.473 127.105L559.801 125.006C561.4 124.788 562.541 123.345 562.385 121.738L554.954 45.2837C554.788 43.5742 553.226 42.3518 551.529 42.6012L534.578 45.0797C532.966 45.3155 531.836 46.7919 532.029 48.4077Z" fill="white"/>
<path d="M532.029 48.4077L541.081 124.482C541.278 126.152 542.808 127.333 544.473 127.105L559.801 125.006C561.4 124.788 562.541 123.345 562.385 121.738L554.954 45.2837C554.788 43.5742 553.226 42.3518 551.529 42.6012L534.578 45.0797C532.966 45.3155 531.836 46.7919 532.029 48.4077Z" stroke="#2A1E17" stroke-width="1.33354" stroke-miterlimit="10" stroke-linecap="round" stroke-linejoin="round"/>
<path d="M536.659 50.1863L539.527 67.98L553.044 66.9748L551.576 47.8144L536.659 50.1863Z" fill="#FF6D66"/>
<path d="M540.507 74.7765L542.409 93.5375L554.913 92.419L553.19 73.3459L540.507 74.7765Z" fill="#91BA83"/>
<path d="M542.646 100.24L545.515 118.033L556.889 116.773L555.523 98.6015L542.646 100.24Z" fill="#FAD8B0"/>
<path d="M512.267 64.6048L537.336 138.293C537.766 139.558 539.151 140.225 540.407 139.772L556.11 134.12C557.318 133.685 557.966 132.373 557.579 131.149L534.039 56.7331C533.629 55.4306 532.21 54.7387 530.93 55.2118L513.699 61.5931C512.484 62.0439 511.85 63.3797 512.267 64.6051V64.6048Z" fill="white"/>
<path d="M512.267 64.6048L537.336 138.293C537.766 139.558 539.151 140.225 540.407 139.772L556.11 134.12C557.318 133.685 557.966 132.373 557.579 131.149L534.039 56.7331C533.629 55.4306 532.21 54.7387 530.93 55.2118L513.699 61.5931C512.484 62.0439 511.85 63.3797 512.267 64.6051V64.6048Z" stroke="#2A1E17" stroke-width="1.33354" stroke-miterlimit="10" stroke-linecap="round" stroke-linejoin="round"/>
<path d="M517.358 65.9481L523.865 82.7562L536.878 78.9616L531.454 60.5267L517.358 65.9481Z" fill="#A0C6F4"/>
<path d="M526.236 89.2002L531.997 107.156L543.996 103.461L538.345 85.1641L526.236 89.2002Z" fill="#F9865F"/>
<path d="M533.624 113.662L540.131 130.47L550.992 126.872L545.878 109.382L533.624 113.662Z" fill="#FAD8B0"/>
<path d="M323.337 189.426H196.745C192.706 189.426 189.433 186.153 189.433 182.115V164.993C189.433 160.954 192.706 157.681 196.745 157.681H323.337C327.374 157.681 330.647 160.954 330.647 164.993V182.115C330.647 186.153 327.374 189.426 323.337 189.426Z" fill="#7595EC"/>
<path d="M275.907 171.858H206.894C205.559 171.858 204.479 170.777 204.479 169.442C204.479 168.109 205.56 167.028 206.894 167.028H275.907C277.242 167.028 278.323 168.109 278.323 169.442C278.323 170.777 277.242 171.858 275.907 171.858Z" fill="white"/>
<path d="M205.169 178.116H322.49" stroke="#2A1E17" stroke-width="1.33354" stroke-miterlimit="10" stroke-linecap="round" stroke-linejoin="round"/>
<path d="M147.143 100.152L145.145 97.9644L138.531 104.004L140.53 106.192C141.372 107.115 142.803 107.18 143.726 106.338L147 103.348C147.921 102.506 147.986 101.075 147.144 100.152L147.143 100.152Z" fill="#91BA83"/>
<path d="M135.612 85.9958L145.027 96.3021C145.513 96.8353 145.475 97.6625 144.942 98.1488L138.437 104.09C137.904 104.578 137.079 104.54 136.591 104.007L127.177 93.6997C126.691 93.1676 126.728 92.3408 127.26 91.8545L133.765 85.9131C134.298 85.4264 135.125 85.4638 135.612 85.9958Z" stroke="#2A1E17" stroke-width="1.33354" stroke-miterlimit="10" stroke-linecap="round" stroke-linejoin="round"/>
<path d="M117.339 151.336H105.511V140.536H117.339V151.336Z" fill="#FF6D66"/>
<path d="M105.512 133.586V140.536H98.4356" stroke="#2A1E17" stroke-width="1.33354" stroke-miterlimit="10" stroke-linecap="round" stroke-linejoin="round"/>
<path d="M507.005 29.3772H495.176V18.577H507.005V29.3772Z" fill="#FAD8B0"/>
<path d="M495.176 11.6267V18.5759H488.101" stroke="#2A1E17" stroke-width="1.33354" stroke-miterlimit="10" stroke-linecap="round" stroke-linejoin="round"/>
<path d="M175.06 85.3323C52.4426 34.5032 -41.9545 132.397 189.185 282.298C207.385 294.102 235.297 298.244 235.297 298.244" stroke="#2A1E17" stroke-width="1.33354" stroke-miterlimit="10" stroke-linecap="round" stroke-linejoin="round"/>
<path d="M65.781 88.7506C65.781 90.6812 64.2158 92.2478 62.2837 92.2478C60.3532 92.2478 58.7876 90.6812 58.7876 88.7506C58.7876 86.8196 60.3532 85.2529 62.2837 85.2529C64.2158 85.2529 65.781 86.8196 65.781 88.7506Z" fill="#2A1E17"/>
<path d="M40.0345 69.5595L43.8613 65.8862L52.6573 70.9199L57.08 84.5622L43.5772 78.9117L40.0345 69.5595Z" stroke="#2A1E17" stroke-width="1.33354" stroke-miterlimit="10" stroke-linecap="round" stroke-linejoin="round"/>
<path d="M43.8606 65.8865L40.0342 69.5599L37.8912 66.9586L41.565 63.4371L43.8606 65.8865Z" stroke="#2A1E17" stroke-width="1.33354" stroke-miterlimit="10" stroke-linecap="round" stroke-linejoin="round"/>
<path d="M57.0796 84.5617L48.2996 74.9156" stroke="#2A1E17" stroke-width="1.33354" stroke-miterlimit="10" stroke-linecap="round" stroke-linejoin="round"/>
<path d="M78.3331 329.336L87.864 378.446C88.0733 379.524 89.1254 380.22 90.197 379.992L100.081 377.893C101.112 377.675 101.785 376.68 101.607 375.641L93.1146 326.204C92.9242 325.1 91.8491 324.379 90.7548 324.622L79.8352 327.045C78.7975 327.276 78.1324 328.292 78.3335 329.336H78.3331Z" fill="white"/>
<path d="M78.3331 329.336L87.864 378.446C88.0733 379.524 89.1254 380.22 90.197 379.992L100.081 377.893C101.112 377.675 101.785 376.68 101.607 375.641L93.1146 326.204C92.9242 325.1 91.8491 324.379 90.7548 324.622L79.8352 327.045C78.7975 327.276 78.1324 328.292 78.3335 329.336H78.3331Z" stroke="#2A1E17" stroke-width="1.33354" stroke-miterlimit="10" stroke-linecap="round" stroke-linejoin="round"/>
<path d="M81.4336 330.272L84.1521 341.724L92.9072 340.422L91.0352 328.015L81.4336 330.272Z" fill="#FF6D66"/>
<path d="M85.1146 346.103L87.2507 358.231L95.34 356.904L93.3078 344.566L85.1146 346.103Z" fill="#FAD8B0"/>
<path d="M87.7253 362.583L90.4438 374.035L97.7906 372.67L96.033 360.901L87.7253 362.583Z" fill="#A0C6F4"/>
<path d="M351.245 452.42L391.525 441.638L393.06 446.003L352.328 456.575L351.245 452.42Z" stroke="#2A1E17" stroke-width="1.33354" stroke-miterlimit="10" stroke-linecap="round" stroke-linejoin="round"/>
<path d="M345.657 446.788L346.82 450.444" stroke="#2A1E17" stroke-width="1.33354" stroke-miterlimit="10" stroke-linecap="round" stroke-linejoin="round"/>
<path d="M344.523 449.172L347.922 448.005" stroke="#2A1E17" stroke-width="1.33354" stroke-miterlimit="10" stroke-linecap="round" stroke-linejoin="round"/>
<path d="M343.703 460.752L345.895 467.651" stroke="#2A1E17" stroke-width="1.33354" stroke-miterlimit="10" stroke-linecap="round" stroke-linejoin="round"/>
<path d="M341.835 465.126L347.888 463.204" stroke="#2A1E17" stroke-width="1.33354" stroke-miterlimit="10" stroke-linecap="round" stroke-linejoin="round"/>
<path d="M334.498 449.367L337.357 458.503" stroke="#2A1E17" stroke-width="1.33354" stroke-miterlimit="10" stroke-linecap="round" stroke-linejoin="round"/>
<path d="M331.657 455.056L340.138 452.349" stroke="#2A1E17" stroke-width="1.33354" stroke-miterlimit="10" stroke-linecap="round" stroke-linejoin="round"/>
<path d="M57.5637 14.8727L32.0745 3.36773L33.1307 0.448608L58.7653 12.2555L57.5637 14.8727Z" stroke="#2A1E17" stroke-width="0.894443" stroke-miterlimit="10" stroke-linecap="round" stroke-linejoin="round"/>
<path d="M58.0731 20.1698L59.0223 17.7778" stroke="#2A1E17" stroke-width="0.894443" stroke-miterlimit="10" stroke-linecap="round" stroke-linejoin="round"/>
<path d="M59.6745 19.4141L57.4144 18.5763" stroke="#2A1E17" stroke-width="0.894443" stroke-miterlimit="10" stroke-linecap="round" stroke-linejoin="round"/>
<path d="M65.0177 13.7504L66.8096 9.23849" stroke="#2A1E17" stroke-width="0.894443" stroke-miterlimit="10" stroke-linecap="round" stroke-linejoin="round"/>
<path d="M67.8439 12.2717L63.8864 10.6997" stroke="#2A1E17" stroke-width="0.894443" stroke-miterlimit="10" stroke-linecap="round" stroke-linejoin="round"/>
<path d="M64.9618 23.5696L67.3564 17.6123" stroke="#2A1E17" stroke-width="0.894443" stroke-miterlimit="10" stroke-linecap="round" stroke-linejoin="round"/>
<path d="M68.8528 21.8219L63.2995 19.626" stroke="#2A1E17" stroke-width="0.894443" stroke-miterlimit="10" stroke-linecap="round" stroke-linejoin="round"/>
<path d="M152.815 230.128C134.849 217.194 117.196 197.092 124.941 176.444C124.941 176.444 137.328 168.184 156.944 178.508L176.56 188.832L152.815 230.128Z" fill="#FAD8B0"/>
<path d="M144.67 316.3C136.587 312.478 102.071 294.509 95.9295 263.805C90.624 237.273 110.911 201.509 121.075 185.708C120.422 206.683 141.484 224.435 151.647 231.752C161.94 239.161 169.511 242.787 179.956 246.709L144.67 316.3V316.3Z" fill="white"/>
<path d="M124.94 176.444C124.94 176.444 86.7428 228.063 93.9679 264.197C101.195 300.33 145.588 318.913 145.588 318.913L182.754 245.613C171.139 241.354 163.593 237.887 152.815 230.127C134.85 217.193 117.196 197.091 124.94 176.443V176.444ZM119.528 191.947C121.732 205.888 132.37 220.337 150.478 233.374C160.255 240.414 167.607 244.092 177.167 247.786L143.773 313.646C133.598 308.584 103.495 291.433 97.8907 263.412C93.2322 240.118 109.026 209.223 119.528 191.947Z" fill="#FAD8B0"/>
<path d="M114.895 206.441C114.895 206.441 117.117 227.178 137.853 238.286" stroke="#2A1E17" stroke-width="1.33354" stroke-miterlimit="10" stroke-linecap="round" stroke-linejoin="round"/>
<path d="M148.962 245.691L169.698 256.8" stroke="#2A1E17" stroke-width="1.33354" stroke-miterlimit="10" stroke-linecap="round" stroke-linejoin="round"/>
<path d="M117.857 236.064C117.857 236.064 124.522 250.875 145.998 260.503" stroke="#2A1E17" stroke-width="1.33354" stroke-miterlimit="10" stroke-linecap="round" stroke-linejoin="round"/>
<path d="M100.825 238.286C100.825 238.286 101.566 253.838 111.932 259.023" stroke="#2A1E17" stroke-width="1.33354" stroke-miterlimit="10" stroke-linecap="round" stroke-linejoin="round"/>
<path d="M124.522 184.224C124.522 184.224 122.602 204.196 152.816 230.128" stroke="#2A1E17" stroke-width="1.33354" stroke-miterlimit="10" stroke-linecap="round" stroke-linejoin="round"/>
<path d="M135.631 187.927C135.631 187.927 145.259 187.185 159.329 197.553" stroke="#2A1E17" stroke-width="1.33354" stroke-miterlimit="10" stroke-linecap="round" stroke-linejoin="round"/>
<path d="M90.3565 251.694C89.7368 261.599 90.9751 297.502 142.974 320.406" stroke="#2A1E17" stroke-width="1.33354" stroke-miterlimit="10" stroke-linecap="round" stroke-linejoin="round"/>
<path d="M422.396 231.72L400.34 275.923C400.34 275.923 415.301 281.428 403.605 298.577C403.605 298.577 431.255 310.043 449.347 280.261C467.439 250.479 422.396 231.72 422.396 231.72Z" fill="#91BA83"/>
<path d="M371.916 366.809C360.755 366.809 348.976 362.251 336.882 353.257L378.143 284.906L402.683 300.359L402.839 300.425C403.066 300.52 408.529 302.746 416.24 302.748H416.241C422.442 302.748 430.264 301.299 437.886 295.906L407.725 347.504C407.656 347.605 394.671 366.808 371.919 366.809H371.916V366.809Z" fill="white"/>
<path d="M449.347 280.262C439.124 297.087 425.853 300.746 416.24 300.746C408.839 300.746 403.605 298.577 403.605 298.577L377.485 282.127L334.239 353.764C348.72 364.927 361.351 368.809 371.919 368.809C396.079 368.809 409.453 348.513 409.453 348.513L449.347 280.262V280.262ZM378.802 287.685L401.474 301.961L401.761 302.142L402.074 302.273C402.318 302.373 408.136 304.746 416.24 304.746C420.971 304.746 426.596 303.952 432.379 301.362L406.064 346.383C405.205 347.634 392.985 364.808 371.919 364.808C361.643 364.808 350.763 360.744 339.542 352.72L378.802 287.685V287.685Z" fill="#96BD89"/>
<path d="M400.34 275.923C400.34 275.923 416.791 281.73 403.605 298.577" stroke="#2A1E17" stroke-width="1.33354" stroke-miterlimit="10" stroke-linecap="round" stroke-linejoin="round"/>
<path d="M376.972 280.593C376.972 280.593 399.38 301.118 411.784 300.979C424.188 300.842 438.733 297.887 447.316 283.09" stroke="#2A1E17" stroke-width="1.33354" stroke-miterlimit="10" stroke-linecap="round" stroke-linejoin="round"/>
<path d="M379.721 307.145C379.721 307.145 395.101 320.803 412.301 316.417" stroke="#2A1E17" stroke-width="1.33354" stroke-miterlimit="10" stroke-linecap="round" stroke-linejoin="round"/>
<path d="M395.876 327.555C395.876 327.555 403.947 333.603 415.225 327.883" stroke="#2A1E17" stroke-width="1.33354" stroke-miterlimit="10" stroke-linecap="round" stroke-linejoin="round"/>
<path d="M358.753 335.97C358.753 335.97 377.373 354.487 406.682 342.274" stroke="#2A1E17" stroke-width="1.33354" stroke-miterlimit="10" stroke-linecap="round" stroke-linejoin="round"/>
<path d="M368.886 317.91C368.886 317.91 376.482 323.341 381.242 325.076" stroke="#2A1E17" stroke-width="1.33354" stroke-miterlimit="10" stroke-linecap="round" stroke-linejoin="round"/>
<path d="M426.184 244.55C426.184 244.55 443.184 250.11 445.22 272.54" stroke="#2A1E17" stroke-width="1.33354" stroke-miterlimit="10" stroke-linecap="round" stroke-linejoin="round"/>
<path d="M434.728 272.27C434.728 272.27 442.555 284.38 429.325 296.493" stroke="#2A1E17" stroke-width="1.33354" stroke-miterlimit="10" stroke-linecap="round" stroke-linejoin="round"/>
<path d="M335.815 357.145C335.815 357.145 378.501 393.703 409.48 350.954" stroke="#2A1E17" stroke-width="1.33354" stroke-miterlimit="10" stroke-linecap="round" stroke-linejoin="round"/>
<path d="M27.7013 217.922H37.652" stroke="#FF6D66" stroke-width="1.33354" stroke-miterlimit="10" stroke-linecap="round" stroke-linejoin="round"/>
<path d="M582.035 98.2339H591.987" stroke="#FF6D66" stroke-width="1.33354" stroke-miterlimit="10" stroke-linecap="round" stroke-linejoin="round"/>
<path d="M315.176 29.958H325.127" stroke="#FAD8B0" stroke-width="1.33354" stroke-miterlimit="10"/>
<path d="M601.034 149.848L610.829 151.606" stroke="#FAD8B0" stroke-width="1.33354" stroke-miterlimit="10"/>
<path d="M210.138 398.147H220.088" stroke="#A0C6F4" stroke-width="1.33354" stroke-miterlimit="10" stroke-linecap="round" stroke-linejoin="round"/>
<path d="M625.771 274.099C625.771 275.921 624.295 277.398 622.473 277.398C620.652 277.398 619.176 275.921 619.176 274.099C619.176 272.278 620.652 270.8 622.473 270.8C624.295 270.8 625.771 272.278 625.771 274.099Z" fill="#91BA83"/>
<path d="M6.5944 115.934C6.5944 117.755 5.1184 119.231 3.29702 119.231C1.47563 119.231 -0.000366211 117.755 -0.000366211 115.934C-0.000366211 114.112 1.47563 112.636 3.29702 112.636C5.1184 112.636 6.5944 114.112 6.5944 115.934Z" fill="#91BA83"/>
<path d="M659.767 489.745C657.925 489.162 656.906 487.197 657.488 485.355C658.071 483.514 660.035 482.495 661.876 483.077C663.717 483.661 664.738 485.625 664.155 487.466C663.572 489.308 661.608 490.327 659.767 489.745Z" fill="#2A1E17"/>
<path d="M670.298 390.283C613.612 438.686 593.336 491.367 607.887 497.142C628.794 505.44 659.931 486.721 659.931 486.721" stroke="#2A1E17" stroke-width="1.33354" stroke-miterlimit="10" stroke-linecap="round" stroke-linejoin="round"/>
</g>
<defs>
<clipPath id="clip0_2_313">
<rect width="670.964" height="499.929" fill="white"/>
</clipPath>
</defs>
</svg>
